<svg width="144" height="40" viewBox="0 0 144 40" fill="none" xmlns="http://www.w3.org/2000/svg">
<path d="M132.14 13.0908H134.597V16.8596L134.447 18.5283H134.597C134.859 18.0908 135.234 17.7346 135.722 17.4596C136.222 17.1721 136.778 17.0283 137.39 17.0283C138.578 17.0283 139.453 17.3783 140.015 18.0783C140.59 18.7783 140.878 19.7346 140.878 20.9471V26.5158H138.422V21.2471C138.422 20.6096 138.272 20.1283 137.972 19.8033C137.672 19.4658 137.253 19.2971 136.715 19.2971C136.378 19.2971 136.078 19.3721 135.815 19.5221C135.553 19.6596 135.328 19.8533 135.14 20.1033C134.965 20.3533 134.828 20.6471 134.728 20.9846C134.64 21.3096 134.597 21.6596 134.597 22.0346V26.5158H132.14V13.0908Z" fill="white"/>
<path d="M131.204 24.1721C130.804 24.9471 130.242 25.5846 129.517 26.0846C128.804 26.5721 127.911 26.8158 126.836 26.8158C126.123 26.8158 125.467 26.6971 124.867 26.4596C124.279 26.2096 123.767 25.8658 123.329 25.4283C122.904 24.9908 122.567 24.4783 122.317 23.8908C122.079 23.2908 121.961 22.6346 121.961 21.9221C121.961 21.2096 122.079 20.5533 122.317 19.9533C122.567 19.3533 122.904 18.8408 123.329 18.4158C123.767 17.9783 124.279 17.6408 124.867 17.4033C125.467 17.1533 126.123 17.0283 126.836 17.0283C127.898 17.0283 128.792 17.2721 129.517 17.7596C130.242 18.2471 130.773 18.8783 131.111 19.6533L128.861 20.5908C128.648 20.1658 128.373 19.8471 128.036 19.6346C127.711 19.4096 127.298 19.2971 126.798 19.2971C126.473 19.2971 126.167 19.3596 125.879 19.4846C125.592 19.6096 125.336 19.7846 125.111 20.0096C124.898 20.2346 124.729 20.5096 124.604 20.8346C124.479 21.1596 124.417 21.5221 124.417 21.9221C124.417 22.3221 124.479 22.6846 124.604 23.0096C124.729 23.3346 124.898 23.6096 125.111 23.8346C125.336 24.0596 125.592 24.2346 125.879 24.3596C126.167 24.4846 126.473 24.5471 126.798 24.5471C127.311 24.5471 127.742 24.4346 128.092 24.2096C128.454 23.9721 128.742 23.6346 128.954 23.1971L131.204 24.1721Z" fill="white"/>
<path d="M121.238 24.3033C120.813 25.0533 120.238 25.6596 119.513 26.1221C118.8 26.5846 117.925 26.8158 116.888 26.8158C116.188 26.8158 115.538 26.6971 114.938 26.4596C114.35 26.2096 113.838 25.8658 113.4 25.4283C112.963 24.9908 112.619 24.4783 112.369 23.8908C112.132 23.2908 112.013 22.6346 112.013 21.9221C112.013 21.2596 112.132 20.6346 112.369 20.0471C112.607 19.4471 112.938 18.9283 113.363 18.4908C113.788 18.0408 114.288 17.6846 114.863 17.4221C115.45 17.1596 116.094 17.0283 116.794 17.0283C117.532 17.0283 118.188 17.1533 118.763 17.4033C119.338 17.6408 119.819 17.9783 120.207 18.4158C120.594 18.8408 120.888 19.3471 121.088 19.9346C121.288 20.5221 121.388 21.1596 121.388 21.8471C121.388 21.9346 121.388 22.0096 121.388 22.0721C121.375 22.1471 121.369 22.2158 121.369 22.2783C121.357 22.3408 121.35 22.4096 121.35 22.4846H114.432C114.482 22.8596 114.582 23.1846 114.732 23.4596C114.894 23.7221 115.088 23.9471 115.313 24.1346C115.55 24.3096 115.807 24.4408 116.082 24.5283C116.357 24.6033 116.638 24.6408 116.925 24.6408C117.488 24.6408 117.95 24.5158 118.313 24.2658C118.688 24.0033 118.982 23.6783 119.194 23.2908L121.238 24.3033ZM119.007 20.7408C118.994 20.5783 118.938 20.3971 118.838 20.1971C118.75 19.9971 118.613 19.8096 118.425 19.6346C118.25 19.4596 118.025 19.3158 117.75 19.2033C117.488 19.0908 117.169 19.0346 116.794 19.0346C116.269 19.0346 115.807 19.1846 115.407 19.4846C115.007 19.7846 114.725 20.2033 114.563 20.7408H119.007Z" fill="white"/>
<path d="M106.82 26.5158V15.4908H103.07V13.0908H113.102V15.4908H109.352V26.5158H106.82Z" fill="white"/>
<path d="M102.514 24.3033C102.089 25.0533 101.514 25.6596 100.789 26.1221C100.077 26.5846 99.2017 26.8158 98.1642 26.8158C97.4642 26.8158 96.8142 26.6971 96.2142 26.4596C95.6267 26.2096 95.1142 25.8658 94.6767 25.4283C94.2392 24.9908 93.8954 24.4783 93.6454 23.8908C93.4079 23.2908 93.2892 22.6346 93.2892 21.9221C93.2892 21.2596 93.4079 20.6346 93.6454 20.0471C93.8829 19.4471 94.2142 18.9283 94.6392 18.4908C95.0642 18.0408 95.5642 17.6846 96.1392 17.4221C96.7267 17.1596 97.3704 17.0283 98.0704 17.0283C98.8079 17.0283 99.4642 17.1533 100.039 17.4033C100.614 17.6408 101.095 17.9783 101.483 18.4158C101.87 18.8408 102.164 19.3471 102.364 19.9346C102.564 20.5221 102.664 21.1596 102.664 21.8471C102.664 21.9346 102.664 22.0096 102.664 22.0721C102.652 22.1471 102.645 22.2158 102.645 22.2783C102.633 22.3408 102.627 22.4096 102.627 22.4846H95.7079C95.7579 22.8596 95.8579 23.1846 96.0079 23.4596C96.1704 23.7221 96.3642 23.9471 96.5892 24.1346C96.8267 24.3096 97.0829 24.4408 97.3579 24.5283C97.6329 24.6033 97.9142 24.6408 98.2017 24.6408C98.7642 24.6408 99.2267 24.5158 99.5892 24.2658C99.9642 24.0033 100.258 23.6783 100.47 23.2908L102.514 24.3033ZM100.283 20.7408C100.27 20.5783 100.214 20.3971 100.114 20.1971C100.027 19.9971 99.8892 19.8096 99.7017 19.6346C99.5267 19.4596 99.3017 19.3158 99.0267 19.2033C98.7642 19.0908 98.4454 19.0346 98.0704 19.0346C97.5454 19.0346 97.0829 19.1846 96.6829 19.4846C96.2829 19.7846 96.0017 20.2033 95.8392 20.7408H100.283Z" fill="white"/>
<path d="M87.3088 17.3284H89.6151V18.6034H89.7651C89.8776 18.3784 90.0276 18.1722 90.2151 17.9847C90.4026 17.7972 90.6088 17.6347 90.8338 17.4972C91.0713 17.3597 91.3213 17.2534 91.5838 17.1784C91.8588 17.1034 92.1276 17.0659 92.3901 17.0659C92.7151 17.0659 92.9901 17.0972 93.2151 17.1597C93.4526 17.2222 93.6526 17.3034 93.8151 17.4034L93.1588 19.6347C93.0088 19.5597 92.8401 19.5034 92.6526 19.4659C92.4776 19.4159 92.2588 19.3909 91.9963 19.3909C91.6588 19.3909 91.3526 19.4597 91.0776 19.5972C90.8026 19.7222 90.5651 19.9034 90.3651 20.1409C90.1776 20.3784 90.0276 20.6597 89.9151 20.9847C89.8151 21.2972 89.7651 21.6409 89.7651 22.0159V26.5159H87.3088V17.3284Z" fill="white"/>
<path d="M83.461 25.3159H83.311C83.0235 25.7784 82.636 26.1471 82.1485 26.4221C81.661 26.6846 81.1047 26.8159 80.4797 26.8159C79.3172 26.8159 78.4485 26.4596 77.8735 25.7471C77.311 25.0346 77.0297 24.0846 77.0297 22.8971V17.3284H79.486V22.5971C79.486 23.2596 79.6297 23.7534 79.9172 24.0784C80.2172 24.3909 80.6485 24.5471 81.211 24.5471C81.5485 24.5471 81.8422 24.4784 82.0922 24.3409C82.3547 24.1909 82.5735 23.9971 82.7485 23.7596C82.936 23.5096 83.0735 23.2221 83.161 22.8971C83.261 22.5596 83.311 22.2034 83.311 21.8284V17.3284H85.7672V26.5159H83.461V25.3159Z" fill="white"/>
<path d="M71.1541 19.4284H69.5416V17.3284H71.1541V14.5159H73.6103V17.3284H75.8603V19.4284H73.6103V22.9909C73.6103 23.2034 73.6291 23.4034 73.6666 23.5909C73.7166 23.7659 73.8041 23.9159 73.9291 24.0409C74.1041 24.2409 74.3541 24.3409 74.6791 24.3409C74.8916 24.3409 75.0603 24.3221 75.1853 24.2846C75.3103 24.2346 75.4291 24.1721 75.5416 24.0971L76.2353 26.2534C75.9478 26.3909 75.6353 26.4909 75.2978 26.5534C74.9728 26.6284 74.6103 26.6659 74.2103 26.6659C73.7478 26.6659 73.3291 26.5971 72.9541 26.4596C72.5916 26.3096 72.2853 26.1096 72.0353 25.8596C71.4478 25.2971 71.1541 24.4971 71.1541 23.4596V19.4284Z" fill="white"/>
<path d="M66.2022 25.3159H66.0522C65.7647 25.7784 65.3772 26.1471 64.8897 26.4221C64.4022 26.6846 63.8459 26.8159 63.2209 26.8159C62.0584 26.8159 61.1897 26.4596 60.6147 25.7471C60.0522 25.0346 59.7709 24.0846 59.7709 22.8971V17.3284H62.2272V22.5971C62.2272 23.2596 62.3709 23.7534 62.6584 24.0784C62.9584 24.3909 63.3897 24.5471 63.9522 24.5471C64.2897 24.5471 64.5834 24.4784 64.8334 24.3409C65.0959 24.1909 65.3147 23.9971 65.4897 23.7596C65.6772 23.5096 65.8147 23.2221 65.9022 22.8971C66.0022 22.5596 66.0522 22.2034 66.0522 21.8284V17.3284H68.5084V26.5159H66.2022V25.3159Z" fill="white"/>
<path d="M50.6193 13.0908H59.1318V15.4908H53.1506V18.7533H58.5318V21.1533H53.1506V26.5158H50.6193V13.0908Z" fill="white"/>
<path d="M27.1041 40.0001V33.3334C30.793 33.3334 33.7708 30.3556 33.7708 26.6667H40.4375C40.4375 34.0445 34.4597 40.0001 27.1041 40.0001Z" fill="#FFD11A"/>
<path d="M27.1042 40.0001V33.3334C23.4153 33.3334 20.4375 30.3556 20.4375 26.6667H13.7708C13.7708 34.0445 19.7486 40.0001 27.1042 40.0001Z" fill="#FFD11A"/>
<path d="M0.4375 26.6665H7.10417C7.10417 30.3554 10.0819 33.3332 13.7708 33.3332V39.9998C6.41528 39.9998 0.4375 34.0443 0.4375 26.6665Z" fill="#FFD11A"/>
<path d="M0.4375 26.6666H7.10417C7.10417 22.9777 10.0819 19.9999 13.7708 19.9999V13.3333C6.41528 13.3333 0.4375 19.311 0.4375 26.6666Z" fill="#FFD11A"/>
<path d="M13.7708 0V6.66667C10.0819 6.66667 7.10417 9.64444 7.10417 13.3333H0.4375C0.4375 5.97778 6.41528 0 13.7708 0Z" fill="#FFD11A"/>
<path d="M13.7708 0V6.66667C17.4597 6.66667 20.4375 9.64444 20.4375 13.3333H27.1042C27.1042 5.97778 21.1264 0 13.7708 0Z" fill="#FFD11A"/>
<path d="M40.4375 13.3333H33.7708C33.7708 9.64444 30.7931 6.66667 27.1042 6.66667V0C34.4597 0 40.4375 5.97778 40.4375 13.3333Z" fill="#FFD11A"/>
<path d="M40.4375 13.3333H33.7709C33.7709 17.0221 30.7931 19.9999 27.1042 19.9999V26.6666C34.4598 26.6666 40.4375 20.711 40.4375 13.3333Z" fill="#FFD11A"/>
</svg>
