<svg width="14" height="15" viewBox="0 0 14 15" fill="none" xmlns="http://www.w3.org/2000/svg">
<mask id="mask0_121_146" style="mask-type:alpha" maskUnits="userSpaceOnUse" x="0" y="0" width="14" height="15">
<rect y="0.5" width="14" height="14" fill="#D9D9D9"/>
</mask>
<g mask="url(#mask0_121_146)">
<path d="M3.09166 13.0417C2.79999 13.0417 2.55207 12.9396 2.34791 12.7354C2.14374 12.5313 2.04166 12.2833 2.04166 11.9917V4.17501C2.04166 3.88334 2.14374 3.63542 2.34791 3.43126C2.55207 3.22709 2.79999 3.12501 3.09166 3.12501H3.90832V1.88542H4.79791V3.12501H9.21666V1.88542H10.0917V3.12501H10.9083C11.2 3.12501 11.4479 3.22709 11.6521 3.43126C11.8562 3.63542 11.9583 3.88334 11.9583 4.17501V11.9917C11.9583 12.2833 11.8562 12.5313 11.6521 12.7354C11.4479 12.9396 11.2 13.0417 10.9083 13.0417H3.09166ZM3.09166 12.1667H10.9083C10.9472 12.1667 10.9861 12.1472 11.025 12.1083C11.0639 12.0694 11.0833 12.0306 11.0833 11.9917V6.50834H2.91666V11.9917C2.91666 12.0306 2.9361 12.0694 2.97499 12.1083C3.01388 12.1472 3.05277 12.1667 3.09166 12.1667ZM2.91666 5.63334H11.0833V4.17501C11.0833 4.13612 11.0639 4.09723 11.025 4.05834C10.9861 4.01945 10.9472 4.00001 10.9083 4.00001H3.09166C3.05277 4.00001 3.01388 4.01945 2.97499 4.05834C2.9361 4.09723 2.91666 4.13612 2.91666 4.17501V5.63334Z" fill="#B1B3C5"/>
</g>
</svg>
