<svg width="14" height="15" viewBox="0 0 14 15" fill="none" xmlns="http://www.w3.org/2000/svg">
<mask id="mask0_121_151" style="mask-type:alpha" maskUnits="userSpaceOnUse" x="0" y="0" width="14" height="15">
<rect y="0.5" width="14" height="14" fill="#D9D9D9"/>
</mask>
<g mask="url(#mask0_121_151)">
<path d="M9.02708 10.1396L9.63958 9.52708L7.43749 7.32499V4.58333H6.56249V7.67499L9.02708 10.1396ZM6.99999 13.0417C6.23194 13.0417 5.51016 12.8958 4.83466 12.6042C4.15877 12.3125 3.57291 11.9187 3.07708 11.4229C2.58124 10.9271 2.18749 10.3412 1.89583 9.66533C1.60416 8.98983 1.45833 8.26805 1.45833 7.49999C1.45833 6.73194 1.60416 6.00997 1.89583 5.33408C2.18749 4.65858 2.58124 4.07291 3.07708 3.57708C3.57291 3.08124 4.15877 2.68749 4.83466 2.39583C5.51016 2.10416 6.23194 1.95833 6.99999 1.95833C7.76805 1.95833 8.49002 2.10416 9.16591 2.39583C9.84141 2.68749 10.4271 3.08124 10.9229 3.57708C11.4187 4.07291 11.8125 4.65858 12.1042 5.33408C12.3958 6.00997 12.5417 6.73194 12.5417 7.49999C12.5417 8.26805 12.3958 8.98983 12.1042 9.66533C11.8125 10.3412 11.4187 10.9271 10.9229 11.4229C10.4271 11.9187 9.84141 12.3125 9.16591 12.6042C8.49002 12.8958 7.76805 13.0417 6.99999 13.0417ZM6.99999 12.1667C8.29305 12.1667 9.39419 11.7122 10.3034 10.8034C11.2122 9.89419 11.6667 8.79305 11.6667 7.49999C11.6667 6.20694 11.2122 5.1058 10.3034 4.19658C9.39419 3.28774 8.29305 2.83333 6.99999 2.83333C5.70694 2.83333 4.60599 3.28774 3.69716 4.19658C2.78794 5.1058 2.33333 6.20694 2.33333 7.49999C2.33333 8.79305 2.78794 9.89419 3.69716 10.8034C4.60599 11.7122 5.70694 12.1667 6.99999 12.1667Z" fill="#B1B3C5"/>
</g>
</svg>
