<svg width="8" height="8" viewBox="0 0 8 8" fill="none" xmlns="http://www.w3.org/2000/svg">
<path d="M6.91546 7.33341C3.36062 7.33845 0.662705 4.6082 0.666508 1.08446C0.666508 0.854342 0.853056 0.666748 1.08317 0.666748H2.18291C2.38939 0.666748 2.56481 0.818469 2.59513 1.02272C2.6678 1.51225 2.81033 1.98882 3.01837 2.43787L3.06119 2.53029C3.12072 2.65879 3.08037 2.81147 2.96512 2.89378C2.62455 3.13699 2.49439 3.62656 2.75971 4.00856C3.09266 4.48793 3.51236 4.90754 3.99162 5.24034C4.3736 5.50559 4.86309 5.37545 5.1063 5.03493C5.18866 4.91962 5.34142 4.87925 5.47 4.93881L5.562 4.98142C6.01108 5.18945 6.48769 5.33199 6.97727 5.40464C7.18152 5.43496 7.33317 5.61036 7.33317 5.81686V6.91674C7.33317 7.14686 7.14617 7.33341 6.91605 7.33341L6.91546 7.33341Z" fill="#E2E6EE"/>
</svg>
