<svg width="6" height="8" viewBox="0 0 6 8" fill="none" xmlns="http://www.w3.org/2000/svg">
<path d="M3.00016 7.75008C2.47389 7.30118 1.98607 6.80905 1.54183 6.27883C0.875164 5.48258 0.0834965 4.29675 0.0834965 3.16675C0.0829056 1.98656 0.793599 0.922328 1.88394 0.470664C2.97428 0.0190005 4.22936 0.268932 5.0635 1.10383C5.61202 1.64992 5.91929 2.39274 5.91685 3.16675C5.91685 4.29675 5.12516 5.48258 4.4585 6.27883C4.01425 6.80905 3.52644 7.30118 3.00016 7.75008ZM3.00016 1.91675C2.55358 1.91675 2.14092 2.155 1.91763 2.54175C1.69434 2.9285 1.69434 3.405 1.91763 3.79175C2.14092 4.1785 2.55358 4.41675 3.00016 4.41675C3.69052 4.41675 4.25016 3.8571 4.25016 3.16675C4.25016 2.47639 3.69052 1.91675 3.00016 1.91675Z" fill="#D9DFE8"/>
</svg>
