<svg width="8" height="8" viewBox="0 0 8 8" fill="none" xmlns="http://www.w3.org/2000/svg">
<path d="M2.52721 7.55615C1.68465 7.55615 0.925038 7.0486 0.602548 6.27019C0.280058 5.49178 0.458185 4.59576 1.05388 3.99989L1.93805 3.11572L2.52721 3.70489L1.64346 4.58864C1.32766 4.90444 1.20432 5.36474 1.31991 5.79615C1.43551 6.22755 1.77247 6.56451 2.20387 6.6801C2.63527 6.7957 3.09557 6.67236 3.41138 6.35655L4.29513 5.4728L4.8843 6.06239L4.00055 6.94614C3.61058 7.33803 3.08007 7.55767 2.52721 7.55615ZM2.8218 5.76739L2.23263 5.17822L5.17888 2.23197L5.76805 2.82114L2.82221 5.76697L2.8218 5.76739ZM6.06305 4.88364L5.47346 4.29447L6.35722 3.41072C6.67732 3.09586 6.80396 2.6335 6.68898 2.19946C6.574 1.76543 6.23506 1.42641 5.80105 1.31132C5.36704 1.19624 4.90465 1.32277 4.58971 1.6428L3.70555 2.52655L3.11638 1.93739L4.00055 1.05322C4.81517 0.245706 6.12929 0.248583 6.94036 1.05966C7.75144 1.87073 7.75431 3.18485 6.9468 3.99947L6.06305 4.88322V4.88364Z" fill="#E2E6EE"/>
</svg>
