<?xml version="1.0" encoding="UTF-8"?>
<!DOCTYPE svg PUBLIC "-//W3C//DTD SVG 1.1//EN" "http://www.w3.org/Graphics/SVG/1.1/DTD/svg11.dtd">
<svg xmlns="http://www.w3.org/2000/svg" version="1.1" width="512px" height="512px" style="shape-rendering:geometricPrecision; text-rendering:geometricPrecision; image-rendering:optimizeQuality; fill-rule:evenodd; clip-rule:evenodd" xmlns:xlink="http://www.w3.org/1999/xlink">
<g><path style="opacity:1" fill="#61a8de" d="M -0.5,-0.5 C 170.167,-0.5 340.833,-0.5 511.5,-0.5C 511.5,170.167 511.5,340.833 511.5,511.5C 340.833,511.5 170.167,511.5 -0.5,511.5C -0.5,340.833 -0.5,170.167 -0.5,-0.5 Z"/></g>
<g><path style="opacity:1" fill="#fefefe" d="M 405.5,111.5 C 420.131,111.629 426.964,118.963 426,133.5C 406.452,226.122 387.119,318.789 368,411.5C 362.369,426.035 352.536,429.868 338.5,423C 309.344,401.256 280.011,379.756 250.5,358.5C 235.041,374.459 219.375,390.293 203.5,406C 193.408,411.08 185.908,408.58 181,398.5C 170.333,364.5 159.667,330.5 149,296.5C 120.385,287.135 91.5517,278.302 62.5,270C 51.7192,265.134 49.7192,257.801 56.5,248C 172.709,201.885 289.042,156.385 405.5,111.5 Z"/></g>
<g><path style="opacity:1" fill="#62a8de" d="M 354.5,167.5 C 360.067,166.753 361.9,169.087 360,174.5C 306.927,221.618 253.761,268.618 200.5,315.5C 199.469,316.7 198.635,318.034 198,319.5C 195.972,338.59 193.472,357.59 190.5,376.5C 190.167,376.333 189.833,376.167 189.5,376C 180.61,349.328 172.11,322.494 164,295.5C 163.333,292.833 163.333,290.167 164,287.5C 165.873,285.291 168.04,283.458 170.5,282C 232.065,244.059 293.399,205.892 354.5,167.5 Z"/></g>
</svg>
