<svg width="126" height="35" viewBox="0 0 126 35" fill="none" xmlns="http://www.w3.org/2000/svg">
<path d="M115.29 11.4546H117.439V14.7522L117.307 16.2124H117.439C117.668 15.8296 117.997 15.5179 118.423 15.2772C118.861 15.0257 119.347 14.8999 119.883 14.8999C120.922 14.8999 121.688 15.2062 122.18 15.8187C122.683 16.4312 122.935 17.2679 122.935 18.3288V23.2015H120.786V18.5913C120.786 18.0335 120.654 17.6124 120.392 17.328C120.129 17.0327 119.763 16.8851 119.293 16.8851C118.997 16.8851 118.735 16.9507 118.505 17.0819C118.275 17.2022 118.079 17.3718 117.915 17.5905C117.761 17.8093 117.641 18.0663 117.554 18.3616C117.477 18.646 117.439 18.9522 117.439 19.2804V23.2015H115.29V11.4546Z" fill="white"/>
<path d="M114.471 21.1507C114.121 21.8288 113.628 22.3866 112.994 22.8241C112.371 23.2507 111.588 23.464 110.648 23.464C110.024 23.464 109.45 23.3601 108.925 23.1522C108.411 22.9335 107.963 22.6327 107.58 22.2499C107.208 21.8671 106.913 21.4187 106.694 20.9046C106.486 20.3796 106.382 19.8054 106.382 19.1819C106.382 18.5585 106.486 17.9843 106.694 17.4593C106.913 16.9343 107.208 16.4858 107.58 16.114C107.963 15.7312 108.411 15.4358 108.925 15.228C109.45 15.0093 110.024 14.8999 110.648 14.8999C111.578 14.8999 112.36 15.1132 112.994 15.5397C113.628 15.9663 114.093 16.5187 114.388 17.1968L112.42 18.0171C112.234 17.6452 111.993 17.3663 111.698 17.1804C111.413 16.9835 111.053 16.8851 110.615 16.8851C110.331 16.8851 110.063 16.9397 109.811 17.0491C109.56 17.1585 109.335 17.3116 109.138 17.5085C108.953 17.7054 108.805 17.946 108.696 18.2304C108.586 18.5147 108.531 18.8319 108.531 19.1819C108.531 19.5319 108.586 19.8491 108.696 20.1335C108.805 20.4179 108.953 20.6585 109.138 20.8554C109.335 21.0522 109.56 21.2054 109.811 21.3147C110.063 21.4241 110.331 21.4788 110.615 21.4788C111.063 21.4788 111.441 21.3804 111.747 21.1835C112.064 20.9757 112.316 20.6804 112.502 20.2976L114.471 21.1507Z" fill="white"/>
<path d="M105.75 21.2655C105.378 21.9218 104.875 22.4522 104.24 22.8569C103.617 23.2616 102.851 23.464 101.944 23.464C101.331 23.464 100.762 23.3601 100.237 23.1522C99.7232 22.9335 99.2748 22.6327 98.892 22.2499C98.5092 21.8671 98.2084 21.4187 97.9896 20.9046C97.7818 20.3796 97.6779 19.8054 97.6779 19.1819C97.6779 18.6022 97.7818 18.0554 97.9896 17.5413C98.1975 17.0163 98.4873 16.5624 98.8592 16.1796C99.231 15.7858 99.6685 15.4741 100.172 15.2444C100.686 15.0147 101.249 14.8999 101.862 14.8999C102.507 14.8999 103.081 15.0093 103.584 15.228C104.087 15.4358 104.508 15.7312 104.847 16.114C105.187 16.4858 105.444 16.9288 105.619 17.4429C105.794 17.9569 105.881 18.5147 105.881 19.1163C105.881 19.1929 105.881 19.2585 105.881 19.3132C105.87 19.3788 105.865 19.439 105.865 19.4937C105.854 19.5483 105.848 19.6085 105.848 19.6741H99.7943C99.8381 20.0022 99.9256 20.2866 100.057 20.5272C100.199 20.7569 100.369 20.9538 100.565 21.1179C100.773 21.271 100.997 21.3858 101.238 21.4624C101.479 21.528 101.725 21.5608 101.976 21.5608C102.469 21.5608 102.873 21.4515 103.19 21.2327C103.519 21.003 103.776 20.7187 103.962 20.3796L105.75 21.2655ZM103.797 18.1483C103.787 18.0062 103.737 17.8476 103.65 17.6726C103.573 17.4976 103.453 17.3335 103.289 17.1804C103.136 17.0272 102.939 16.9015 102.698 16.803C102.469 16.7046 102.19 16.6554 101.862 16.6554C101.402 16.6554 100.997 16.7866 100.647 17.0491C100.297 17.3116 100.051 17.678 99.9092 18.1483H103.797Z" fill="white"/>
<path d="M93.1346 23.2015V13.5546H89.8533V11.4546H98.6306V13.5546H95.3494V23.2015H93.1346Z" fill="white"/>
<path d="M89.3666 21.2655C88.9947 21.9218 88.4916 22.4522 87.8572 22.8569C87.2338 23.2616 86.4682 23.464 85.5604 23.464C84.9479 23.464 84.3791 23.3601 83.8541 23.1522C83.3401 22.9335 82.8916 22.6327 82.5088 22.2499C82.126 21.8671 81.8252 21.4187 81.6065 20.9046C81.3986 20.3796 81.2947 19.8054 81.2947 19.1819C81.2947 18.6022 81.3986 18.0554 81.6065 17.5413C81.8143 17.0163 82.1041 16.5624 82.476 16.1796C82.8479 15.7858 83.2854 15.4741 83.7885 15.2444C84.3026 15.0147 84.8658 14.8999 85.4783 14.8999C86.1236 14.8999 86.6979 15.0093 87.201 15.228C87.7041 15.4358 88.1252 15.7312 88.4643 16.114C88.8033 16.4858 89.0604 16.9288 89.2354 17.4429C89.4104 17.9569 89.4979 18.5147 89.4979 19.1163C89.4979 19.1929 89.4979 19.2585 89.4979 19.3132C89.4869 19.3788 89.4815 19.439 89.4815 19.4937C89.4705 19.5483 89.4651 19.6085 89.4651 19.6741H83.4111C83.4549 20.0022 83.5424 20.2866 83.6736 20.5272C83.8158 20.7569 83.9854 20.9538 84.1822 21.1179C84.3901 21.271 84.6143 21.3858 84.8549 21.4624C85.0955 21.528 85.3416 21.5608 85.5932 21.5608C86.0854 21.5608 86.4901 21.4515 86.8072 21.2327C87.1354 21.003 87.3924 20.7187 87.5783 20.3796L89.3666 21.2655ZM87.4143 18.1483C87.4033 18.0062 87.3541 17.8476 87.2666 17.6726C87.1901 17.4976 87.0697 17.3335 86.9057 17.1804C86.7526 17.0272 86.5557 16.9015 86.3151 16.803C86.0854 16.7046 85.8065 16.6554 85.4783 16.6554C85.019 16.6554 84.6143 16.7866 84.2643 17.0491C83.9143 17.3116 83.6682 17.678 83.526 18.1483H87.4143Z" fill="white"/>
<path d="M76.062 15.1623H78.0799V16.2779H78.2112C78.3096 16.0811 78.4409 15.9006 78.6049 15.7365C78.769 15.5725 78.9495 15.4303 79.1463 15.31C79.3541 15.1896 79.5729 15.0967 79.8026 15.0311C80.0432 14.9654 80.2784 14.9326 80.508 14.9326C80.7924 14.9326 81.033 14.96 81.2299 15.0146C81.4377 15.0693 81.6127 15.1404 81.7549 15.2279L81.1807 17.1803C81.0495 17.1146 80.9018 17.0654 80.7377 17.0326C80.5846 16.9889 80.3932 16.967 80.1635 16.967C79.8682 16.967 79.6002 17.0271 79.3596 17.1475C79.119 17.2568 78.9112 17.4154 78.7362 17.6232C78.5721 17.8311 78.4409 18.0771 78.3424 18.3615C78.2549 18.635 78.2112 18.9357 78.2112 19.2639V23.2014H76.062V15.1623Z" fill="white"/>
<path d="M72.6951 22.1514H72.5638C72.3122 22.5561 71.9732 22.8788 71.5466 23.1194C71.1201 23.3491 70.6333 23.4639 70.0865 23.4639C69.0693 23.4639 68.3091 23.1522 67.806 22.5288C67.3138 21.9053 67.0677 21.0741 67.0677 20.035V15.1624H69.2169V19.7725C69.2169 20.3522 69.3427 20.7842 69.5943 21.0686C69.8568 21.342 70.2341 21.4788 70.7263 21.4788C71.0216 21.4788 71.2787 21.4186 71.4974 21.2983C71.7271 21.167 71.9185 20.9975 72.0716 20.7897C72.2357 20.5709 72.356 20.3194 72.4326 20.035C72.5201 19.7397 72.5638 19.428 72.5638 19.0999V15.1624H74.713V23.2014H72.6951V22.1514Z" fill="white"/>
<path d="M61.9265 16.9999H60.5156V15.1624H61.9265V12.7014H64.0757V15.1624H66.0445V16.9999H64.0757V20.117C64.0757 20.303 64.0922 20.478 64.125 20.642C64.1687 20.7952 64.2453 20.9264 64.3547 21.0358C64.5078 21.2108 64.7265 21.2983 65.0109 21.2983C65.1968 21.2983 65.3445 21.2819 65.4539 21.2491C65.5633 21.2053 65.6672 21.1506 65.7656 21.085L66.3726 22.9717C66.1211 23.092 65.8476 23.1795 65.5523 23.2342C65.2679 23.2999 64.9507 23.3327 64.6007 23.3327C64.1961 23.3327 63.8297 23.2725 63.5015 23.1522C63.1843 23.0209 62.9164 22.8459 62.6976 22.6272C62.1836 22.135 61.9265 21.435 61.9265 20.5272V16.9999Z" fill="white"/>
<path d="M57.5936 22.1514H57.4624C57.2108 22.5561 56.8717 22.8788 56.4452 23.1194C56.0186 23.3491 55.5319 23.4639 54.985 23.4639C53.9678 23.4639 53.2077 23.1522 52.7046 22.5288C52.2124 21.9053 51.9663 21.0741 51.9663 20.035V15.1624H54.1155V19.7725C54.1155 20.3522 54.2413 20.7842 54.4928 21.0686C54.7553 21.342 55.1327 21.4788 55.6249 21.4788C55.9202 21.4788 56.1772 21.4186 56.396 21.2983C56.6257 21.167 56.8171 20.9975 56.9702 20.7897C57.1342 20.5709 57.2546 20.3194 57.3311 20.035C57.4186 19.7397 57.4624 19.428 57.4624 19.0999V15.1624H59.6116V23.2014H57.5936V22.1514Z" fill="white"/>
<path d="M43.9586 11.4546H51.4071V13.5546H46.1735V16.4093H50.8821V18.5093H46.1735V23.2015H43.9586V11.4546Z" fill="white"/>
<path d="M23.3828 34.9999V29.1666C26.6106 29.1666 29.2162 26.561 29.2162 23.3333H35.0495C35.0495 29.7888 29.819 34.9999 23.3828 34.9999Z" fill="#FFD11A"/>
<path d="M23.3829 34.9999V29.1666C20.1551 29.1666 17.5495 26.561 17.5495 23.3333H11.7162C11.7162 29.7888 16.9467 34.9999 23.3829 34.9999Z" fill="#FFD11A"/>
<path d="M0.04953 23.3335H5.88286C5.88286 26.5613 8.48842 29.1668 11.7162 29.1668V35.0002C5.28009 35.0002 0.04953 29.7891 0.04953 23.3335Z" fill="#FFD11A"/>
<path d="M0.04953 23.3334H5.88286C5.88286 20.1056 8.48842 17.5001 11.7162 17.5001V11.6667C5.28009 11.6667 0.04953 16.8973 0.04953 23.3334Z" fill="#FFD11A"/>
<path d="M11.7162 0V5.83333C8.48842 5.83333 5.88286 8.43889 5.88286 11.6667H0.04953C0.04953 5.23056 5.28009 0 11.7162 0Z" fill="#FFD11A"/>
<path d="M11.7162 0V5.83333C14.944 5.83333 17.5495 8.43889 17.5495 11.6667H23.3829C23.3829 5.23056 18.1523 0 11.7162 0Z" fill="#FFD11A"/>
<path d="M35.0495 11.6667H29.2162C29.2162 8.43889 26.6107 5.83333 23.3829 5.83333V0C29.819 0 35.0495 5.23056 35.0495 11.6667Z" fill="#FFD11A"/>
<path d="M35.0496 11.6667H29.2162C29.2162 14.8945 26.6107 17.5001 23.3829 17.5001V23.3334C29.819 23.3334 35.0496 18.1223 35.0496 11.6667Z" fill="#FFD11A"/>
</svg>
