<svg width="100%" height="100%" viewBox="0 0 150 151" fill="none" xmlns="http://www.w3.org/2000/svg">
<path d="M100 150.5V125.5C113.833 125.5 125 114.333 125 100.5H149.999C149.999 128.167 127.583 150.5 100 150.5Z" fill="#FFD11A"/>
<path d="M99.9994 150.5V125.5C86.1662 125.5 74.9997 114.333 74.9997 100.5H50C50 128.167 72.4164 150.5 99.9994 150.5Z" fill="#FFD11A"/>
<path d="M0 100.498H24.9997C24.9997 114.331 36.1662 125.497 49.9994 125.497V150.497C22.4164 150.497 0 128.164 0 100.498Z" fill="#FFD11A"/>
<path d="M0 100.499H24.9997C24.9997 86.6658 36.1662 75.4992 49.9994 75.4992V50.4995C22.4164 50.4995 0 72.9159 0 100.499Z" fill="#FFD11A"/>
<path d="M49.9994 0.500244V25.5C36.1662 25.5 24.9997 36.6665 24.9997 50.4997H0C0 22.9167 22.4164 0.500244 49.9994 0.500244Z" fill="#FFD11A"/>
<path d="M50 0.500244V25.5C63.8332 25.5 74.9997 36.6665 74.9997 50.4997H99.9994C99.9994 22.9167 77.583 0.500244 50 0.500244Z" fill="#FFD11A"/>
<path d="M149.999 50.4997H125C125 36.6665 113.833 25.5 100 25.5V0.500244C127.583 0.500244 149.999 22.9167 149.999 50.4997Z" fill="#FFD11A"/>
<path d="M149.999 50.4993H125C125 64.3324 113.833 75.499 100 75.499V100.499C127.583 100.499 149.999 78.1656 149.999 50.4993Z" fill="#FFD11A"/>
</svg>
